# xmcd
#
# Track frame offsets: 
#        150
#        17014
#        32549
#        52809
#        69974
#        89524
#        111184
#        132586
#        165771
#        183216
#        206176
#        218704
#        233846
#        251206
#        262419
#        276554
#        295811
#        313876
#        330794
#        349509
#
# Disc length: 4779 seconds
#
# Revision: 1
# Processed by: cddbd v1.5.2PL0 Copyright (c) Steve Scherf et al.
# Submitted via: ExactAudioCopy v0.99pb4
#
DISCID=2912a914
DTITLE=Ed Motta - Novo Millennium
DYEAR=2005
DGENRE=
TTITLE0=Tem Espaço na van
TTITLE1=2.Manuel
TTITLE2=Fora da lei
TTITLE3=Vendaval
TTITLE4=Colombina
TTITLE5=Daqui pro meier
TTITLE6=Vamos Dançar
TTITLE7=Amor e saudade
TTITLE8=Baixo rio
TTITLE9=Você mentiu pra mim
TTITLE10=A Flor do querer
TTITLE11=Caso serio
TTITLE12=Doce Ilusão
TTITLE13=Mentiras faceis
TTITLE14=Falso milagre do amor
TTITLE15=Birinaite
TTITLE16=Coisas naturais
TTITLE17=Mesa de bar
TTITLE18=Outono no rio
TTITLE19=Cervejamento total
EXTD=
EXTT0=
EXTT1=
EXTT2=
EXTT3=
EXTT4=
EXTT5=
EXTT6=
EXTT7=
EXTT8=
EXTT9=
EXTT10=
EXTT11=
EXTT12=
EXTT13=
EXTT14=
EXTT15=
EXTT16=
EXTT17=
EXTT18=
EXTT19=
PLAYORDER=
